<svg xmlns="http://www.w3.org/2000/svg" viewBox="0 0 24 25.97"><defs><style>.cls-1{isolation:isolate;}.cls-2{fill:#fff;}</style></defs><g id="Laag_2" data-name="Laag 2"><g id="Laag_1-2" data-name="Laag 1"><g class="cls-1"><path class="cls-2" d="M3,0H21V2H3ZM3,7V5H21V7Zm0,5V10H21v2Z"/></g><path id="menu" class="cls-2" d="M5.45,26H4.28V22.48L3.13,24.74h-.8L1.18,22.48V26H0V20H1.16l1.57,3.22L4.29,20H5.45Zm5.93,0h-4V20h4v1H8.59v1.39H11v1H8.59v1.49h2.79Zm6.32,0H16.65L14.27,22.3V26H13.09V20h1.05l2.38,3.64V20H17.7ZM24,23.88A2.07,2.07,0,0,1,21.93,26h-.14A2.08,2.08,0,0,1,19.57,24V20h1.18v3.88a1,1,0,0,0,2.08,0V20H24Z"/></g></g></svg>