<?xml version="1.0" encoding="UTF-8"?>
<svg width="90px" height="52px" viewBox="0 0 90 52" version="1.1" xmlns="http://www.w3.org/2000/svg" xmlns:xlink="http://www.w3.org/1999/xlink">
    <!-- Generator: Sketch 53 (72520) - https://sketchapp.com -->
    <title>xxl_nutrition_logo_vector_without_strokes_(black_background)</title>
    <desc>Created with Sketch.</desc>
    <defs>
        <filter x="-1.1%" y="-17.1%" width="102.2%" height="139.0%" filterUnits="objectBoundingBox" id="filter-1">
            <feOffset dx="0" dy="2" in="SourceAlpha" result="shadowOffsetOuter1"></feOffset>
            <feGaussianBlur stdDeviation="2" in="shadowOffsetOuter1" result="shadowBlurOuter1"></feGaussianBlur>
            <feColorMatrix values="0 0 0 0 0   0 0 0 0 0   0 0 0 0 0  0 0 0 0 0" type="matrix" in="shadowBlurOuter1" result="shadowMatrixOuter1"></feColorMatrix>
            <feMerge>
                <feMergeNode in="shadowMatrixOuter1"></feMergeNode>
                <feMergeNode in="SourceGraphic"></feMergeNode>
            </feMerge>
        </filter>
    </defs>
    <g id="Symbols" stroke="none" stroke-width="1" fill="none" fill-rule="evenodd">
        <g id="MENU-1440-dark" transform="translate(-30.000000, -54.000000)">
            <g id="MENU-1440" transform="translate(0.000000, 39.000000)">
                <g id="Group-4" filter="url(#filter-1)">
                    <g id="xxl_nutrition_logo_vector_without_strokes_(black_background)" transform="translate(30.000000, 15.000000)">
                        <polyline id="Fill-2" fill="#FFFFFE" points="8.8816 51.8247167 6.2257 51.8247167 2.18161667 45.6393167 2.18161667 51.8247167 0.183733333 51.8247167 0.183733333 43.4618167 2.8756 43.4618167 6.84775 49.7312833 6.84775 43.4618167 8.8816 43.4618167 8.8816 51.8247167"></polyline>
                        <path d="M20.8457167,48.9935333 C20.8457167,50.0929 20.4069667,50.8692167 19.5296833,51.3231333 C18.8755667,51.6576667 17.9384833,51.8247167 16.7184333,51.8247167 C15.5298,51.8247167 14.5764667,51.6299333 13.8588667,51.2392833 C12.9415,50.7457167 12.4830333,49.9691833 12.4830333,48.9096833 L12.4830333,43.4618167 L14.6007333,43.4618167 L14.6007333,48.6451333 C14.6007333,49.2983833 14.8358167,49.7722333 15.3062,50.0666833 C15.6491833,50.2818333 16.0760167,50.3890833 16.5864833,50.3890833 C17.45575,50.3890833 18.0539667,50.2181333 18.3811333,49.8753667 C18.6602,49.5811333 18.79995,49.1475833 18.79995,48.5736333 L18.79995,43.4618167 L20.8455,43.4618167 L20.8455,48.9935333 L20.8457167,48.9935333" id="Fill-3" fill="#FFFFFE"></path>
                        <polyline id="Fill-4" fill="#FFFFFE" points="31.9485833 44.8855333 28.8257667 44.8855333 28.8257667 51.8487667 26.8876833 51.8487667 26.8876833 44.8855333 23.8129667 44.8855333 23.8129667 43.4618167 31.9488 43.4618167 31.9485833 44.8855333"></polyline>
                        <path d="M41.0652667,46.0880333 C41.0652667,45.6989 40.91945,45.3994667 40.6284667,45.1890833 C40.3372667,44.9789167 39.94445,44.8736167 39.4500167,44.8736167 L36.9373333,44.8736167 L36.9373333,47.2069 L39.5098167,47.2069 C39.88465,47.2069 40.2196167,47.1234833 40.5149333,46.95665 C40.88175,46.7506 41.0652667,46.4604833 41.0652667,46.0880333 Z M43.7333,51.8247167 L41.36795,51.8247167 L39.195,48.5586833 L36.9373333,48.5586833 L36.9373333,51.8247167 L34.9515833,51.8247167 L34.9515833,43.4618167 L41.0771833,43.4618167 C41.7711667,43.4618167 42.34555,43.7302667 42.8001167,44.2673833 C43.2549,44.8047167 43.4819667,45.4391167 43.4819667,46.1712333 C43.4819667,46.7523333 43.2865333,47.2454667 42.8958833,47.6515 C42.5048,48.0571 42.0105833,48.3116833 41.4123667,48.4148167 L43.7333,51.8247167 L43.7333,51.8247167 Z" id="Fill-5" fill="#FFFFFE"></path>
                        <polygon id="Fill-6" fill="#FFFFFE" points="46.53285 51.8247167 48.7699333 51.8247167 48.7699333 43.4618167 46.53285 43.4618167"></polygon>
                        <polyline id="Fill-7" fill="#FFFFFE" points="59.8606667 44.8855333 56.7385 44.8855333 56.7385 51.8487667 54.8002 51.8487667 54.8002 44.8855333 51.7252667 44.8855333 51.7252667 43.4618167 59.8611 43.4618167 59.8606667 44.8855333"></polyline>
                        <polygon id="Fill-8" fill="#FFFFFE" points="62.8638833 51.8247167 65.10075 51.8247167 65.10075 43.4618167 62.8638833 43.4618167"></polygon>
                        <path d="M75.5577333,47.58325 C75.5577333,46.7599167 75.3620833,46.1047167 74.97165,45.617 C74.5326833,45.0736 73.8829,44.8016833 73.0212167,44.8016833 C72.176,44.8016833 71.5374833,45.0935333 71.10675,45.6770167 C70.7481667,46.1643 70.5687667,46.8 70.5687667,47.58325 C70.5687667,48.4865333 70.7124167,49.1540833 70.9992833,49.5856833 C71.3981667,50.1849833 72.1361333,50.48485 73.2129667,50.48485 C74.1218833,50.48485 74.75975,50.1934333 75.1272167,49.6097333 C75.4140833,49.1540833 75.5577333,48.4787333 75.5577333,47.58325 Z M77.68735,47.63135 C77.68735,49.2609 77.2364667,50.427 76.3355667,51.1298667 C75.6015,51.6968833 74.5329,51.9805 73.1291167,51.9805 C71.5736667,51.9805 70.4251167,51.6531167 69.6830333,50.9979167 C68.8696667,50.2792333 68.4627667,49.1248333 68.4627667,47.5353667 C68.4627667,46.2334167 68.8256833,45.2192 69.5510833,44.4922833 C70.3408333,43.70145 71.52145,43.3064667 73.0927167,43.3064667 C74.82345,43.3064667 76.0437167,43.68585 76.75395,44.4444 C77.3764333,45.1154167 77.68735,46.1777333 77.68735,47.63135 L77.68735,47.63135 Z" id="Fill-9" fill="#FFFFFE"></path>
                        <polyline id="Fill-10" fill="#FFFFFE" points="89.7355333 51.8247167 87.0794167 51.8247167 83.03555 45.6393167 83.03555 51.8247167 81.0372333 51.8247167 81.0372333 43.4618167 83.7291 43.4618167 87.7014667 49.7312833 87.7014667 43.4618167 89.7355333 43.4618167 89.7355333 51.8247167"></polyline>
                        <path d="M27.9747,29.56655 C28.0646167,29.6155167 28.1255,29.6807333 28.2167167,29.6311167 C28.11835,29.4779333 28.11835,29.4779333 27.9747,29.56655 Z M33.95795,16.1410167 C33.6392333,16.1009333 33.3980833,16.1236833 33.1190167,16.2203167 C33.1380833,16.5108667 33.1944167,16.7951333 33.32485,17.0768 C33.3850833,17.0570833 33.4368667,17.0473333 33.4825833,17.0248 C33.5584167,16.9871 33.6336,16.9463667 33.7027167,16.8982667 C33.9928333,16.6935167 34.04765,16.5334 33.95795,16.1410167 Z M24.81765,25.0878333 C24.7827667,25.0679 24.7374833,25.0557667 24.7145167,25.0267333 C24.6103,24.8926167 24.5125833,24.7541667 24.4051167,24.6072667 C24.4878833,24.30675 24.5702167,24.0112167 24.6514667,23.7148167 C24.73315,23.4169 24.7333667,23.4166833 24.5767167,23.1521333 C23.12245,20.6977333 21.6684,18.24355 20.2141333,15.78915 C19.3297,14.29675 18.4454833,12.8039167 17.5612667,11.3108667 C17.5073167,11.21965 17.4551,11.1271333 17.3916167,11.01685 C17.6316833,10.4221 17.8739167,9.82301667 18.11485,9.22675 C18.3044333,9.20811667 18.4201333,9.36325 18.60365,9.3626 C18.6584667,9.2599 18.6277,9.14181667 18.6333333,9.03066667 C18.63875,8.92536667 18.6346333,8.81941667 18.6346333,8.70241667 C19.0317833,8.47253333 19.4007667,8.22185 19.8020333,8.0262 C19.8403833,8.00756667 19.8822,7.99651667 19.9214167,7.98026667 C20.22085,7.85936667 20.4927667,7.84961667 20.73305,8.12045 C20.8442,8.24546667 20.9963,8.33408333 21.1419,8.44891667 C21.1980167,8.78691667 21.2027833,9.13575 21.1999667,9.48285 C21.1148167,9.5732 21.0357333,9.65726667 20.9525333,9.74566667 C21.0071333,9.93438333 21.0441833,10.1187667 21.1369167,10.30575 C21.3100333,10.2372833 21.4393833,10.1265667 21.58195,10.0399 C21.7178,9.95778333 21.8504,9.87046667 21.97845,9.78921667 C22.10195,9.84035 22.1379167,9.94781667 22.1949,10.0338333 C23.5521,12.0843667 24.9075667,14.1362 26.2634667,16.1878167 C26.8974333,17.1467833 27.5314,18.1059667 28.1660167,19.0649333 C28.2243,19.1529 28.2864833,19.2382667 28.3504,19.3297 C28.59285,19.3006667 28.7789667,19.1329667 29.01795,19.0870333 C29.1535833,19.4003333 29.185,19.73335 29.3121833,20.0449167 C29.4972167,20.0683167 29.6651333,20.0449167 29.8542833,19.9378833 C29.7104167,19.8531667 29.5942833,19.7844833 29.4608167,19.7062667 C29.3986333,19.4594833 29.3314667,19.20295 29.2718833,18.9449 C29.26105,18.8963667 29.2705833,18.83765 29.2881333,18.7899833 C29.3882333,18.5195833 29.5071833,18.2585 29.6833333,18.0275333 C29.8737833,17.7785833 30.1257667,17.6254 30.4340833,17.5864 C30.6657,17.5573667 30.9014333,17.5396 31.1339167,17.5489167 C31.3447333,17.5575833 31.4972667,17.4893333 31.6365833,17.3365833 C31.7867333,17.1717 31.9568167,17.02545 32.1208333,16.86815 C32.1208333,16.7171333 32.11975,16.5797667 32.12105,16.4421833 C32.1256,16.0667 32.18085,15.7003167 32.3089,15.34585 C32.5091,14.7927 32.8642167,14.3964167 33.4396833,14.2196167 C33.5207167,14.1947 33.6015333,14.1645833 33.6769333,14.1255833 C33.9518833,13.9823667 34.1176333,13.7626667 34.1323667,13.4446 C34.1375667,13.3276 34.1341,13.2103833 34.1453667,13.0938167 C34.1512167,13.0333667 34.1624833,12.9571 34.2014833,12.91875 C34.3522833,12.7716333 34.5041667,12.6227833 34.6803167,12.5148833 C34.7256,12.53005 34.7572333,12.5356833 34.7845333,12.5499833 C35.1860167,12.7605833 35.1858,12.7610167 35.2999833,13.2045333 C35.3660667,13.4610667 35.4319333,13.71695 35.4986667,13.9765167 C35.6486,14.0235333 35.7829333,14.0103167 35.9341667,13.9916833 C35.9473833,13.9312333 35.9688333,13.8718667 35.9727333,13.8116333 C35.9954833,13.4714667 36.01455,13.1313 36.0342667,12.79135 C36.0446667,12.6056667 36.0175833,12.4308167 35.8925667,12.2824 C35.7391667,12.1006167 35.7086167,11.8911 35.7253,11.6571 C35.7632167,11.1301667 35.7552,11.1293 36.0981833,10.7195833 C36.2483333,10.5395333 36.3976167,10.3588333 36.54885,10.1798667 C36.58915,10.1326333 36.6363833,10.0914667 36.6909833,10.03665 C36.8898833,10.1816 37.0846667,10.3103 37.2640667,10.4582833 C37.4166,10.5846 37.5593833,10.6149333 37.7327167,10.4771333 C37.7091,10.3683667 37.6072667,10.3204833 37.5314333,10.2578667 C37.4322,10.1761833 37.3888667,10.0823667 37.3940667,9.95388333 C37.4012167,9.76256667 37.4001333,9.57016667 37.3945,9.37863333 C37.3903833,9.25383333 37.42635,9.1546 37.51345,9.06208333 C37.9862167,8.55681667 38.4550833,8.04786667 38.9263333,7.54086667 C38.9475667,7.51811667 38.9763833,7.50251667 39.0114833,7.47586667 C39.3375667,7.54498333 39.58435,7.78245 39.8944,7.92653333 C40.1507167,7.87756667 40.3589333,7.73153333 40.5058333,7.51725 C40.5888167,7.39656667 40.6869667,7.31401667 40.8093833,7.24685 C40.9305,7.18055 41.0501,7.11056667 41.1853,7.03386667 C41.23535,7.07135 41.2953667,7.11208333 41.3504,7.1591 C41.5441,7.32571667 41.7373667,7.49298333 41.9276,7.6635 C42.0467667,7.7701 42.1652833,7.87735 42.2744833,7.9937 C42.6538667,8.39735 42.8007667,8.88333333 42.76805,9.42998333 C42.74985,9.72963333 42.692,10.0199667 42.5732667,10.2977333 C42.4322167,10.6277167 42.2250833,10.90245 41.93995,11.12475 C41.7139667,11.3009 41.5035833,11.4980667 41.28475,11.6839667 C41.1302667,11.8154833 41.05335,11.9825333 41.0362333,12.1827333 C41.0089333,12.5008 40.9814167,12.8193 40.9489167,13.1367167 C40.9101333,13.507 40.8733,13.8779333 40.8210833,14.24605 C40.7974667,14.41375 40.7404833,14.57625 40.6928167,14.7394 C40.6720167,14.8104667 40.6416833,14.8795833 40.6078833,14.9461 C40.3775667,15.4000167 40.0829,15.5133333 39.61165,15.3296 C39.55185,15.3064167 39.4963833,15.2741333 39.43615,15.2529 C39.1685667,15.1584333 38.9705333,15.0056833 38.9456167,14.6969333 C38.9432333,14.6692 38.9150667,14.6432 38.8877667,14.5985667 C38.8366333,14.64125 38.7850667,14.6733167 38.7456333,14.71665 C38.2910667,15.21 37.8336833,15.70075 37.3871333,16.2010333 C37.1171667,16.5037167 36.88945,16.8391167 36.7052833,17.2016 C36.6290167,17.3528333 36.543,17.5099167 36.5165667,17.6732833 C36.4619667,18.0091167 36.2221167,18.2277333 36.0819333,18.5146 C35.9699167,18.4864333 35.88715,18.4712667 35.8087167,18.4439667 C35.7042833,18.4075667 35.6187,18.4363833 35.5476333,18.5107 C35.4891333,18.5718 35.4343167,18.6381 35.3864333,18.7078667 C35.20465,18.9704667 35.0228667,19.2332833 34.8501833,19.5013 C34.7999167,19.5795167 34.7711,19.6746333 34.7468333,19.76585 C34.6088167,20.2795667 34.4751333,20.7939333 34.3327833,21.3343 C34.3564,21.3633333 34.3925833,21.4133833 34.4354833,21.4565 C34.6064333,21.6304833 34.7000333,21.84585 34.7355667,22.0800667 C34.7973167,22.4856667 34.7682833,22.8875833 34.6155333,23.2736833 C34.5483667,23.4442 34.4497833,23.5947833 34.30765,23.7141667 C34.1735333,23.82705 34.0194833,23.9018 33.8450667,23.9109 C33.4624333,23.9301833 33.0806667,23.92195 32.7010667,23.8437333 C32.5667333,23.5895833 32.5056333,23.32005 32.4181,23.0052333 C32.3923167,23.0906 32.37065,23.1309 32.3695667,23.17185 C32.3671833,23.2728167 32.3273167,23.3553667 32.2707667,23.4359667 C32.1858333,23.55665 32.10675,23.6821 32.0304833,23.7978 C32.0571333,23.8820833 32.11845,23.8606333 32.16525,23.87125 C32.2051167,23.8799167 32.2456333,23.8875 32.305,23.89985 C32.318,24.0179333 32.331,24.1321167 32.3435667,24.2463 C32.3565667,24.3624333 32.3721667,24.479 32.38235,24.59535 C32.4120333,24.9240333 32.44215,25.2527167 32.4670667,25.5818333 C32.4833167,25.7982833 32.5517833,25.9898167 32.66575,26.1778833 C35.11625,30.2317167 37.5619833,34.2883667 40.00685,38.3456667 C40.22005,38.69905 40.2469167,38.5939667 40.1312167,39.0873167 C40.0878833,39.2727833 40.0495333,39.4599833 40.0083667,39.6476167 C39.91715,39.68315 39.8398,39.71565 39.76115,39.7433833 C39.4021333,39.8738167 39.10985,40.0982833 38.85115,40.3743167 C38.77185,40.4586 38.7382667,40.5452667 38.76275,40.6624833 C38.7948167,40.8184833 38.8130167,40.9775167 38.8388,41.1350333 C38.8578667,41.2531167 38.8496333,41.3649167 38.7933,41.47585 C38.7170333,41.6277333 38.6585333,41.7887167 38.5783667,41.9388667 C38.5528,41.9874 38.48845,42.0355 38.4345,42.0450333 C38.2345167,42.0797 38.0341,42.0846833 37.8343333,42.02185 C37.6081333,41.9514333 37.3932,41.8558833 37.2062167,41.7146167 C36.9262833,41.5033667 36.64635,41.2888667 36.3909,41.04945 C35.72855,40.4295667 35.14745,39.7347167 34.5873667,39.0231833 C33.5859333,37.7507 32.6425667,36.4348833 31.7516333,35.0839667 C30.7317833,33.5378333 29.7377167,31.9743667 28.7328167,30.4184833 C28.6749667,30.3292167 28.61885,30.23865 28.55645,30.1526333 C28.5430167,30.134 28.5053167,30.1331333 28.4786667,30.1233833 C28.4817,30.1075667 28.4843,30.09175 28.4866833,30.07615 C28.4752,30.0783167 28.4639333,30.0807 28.45245,30.0830833 C28.4637167,30.0947833 28.4747667,30.1064833 28.4860333,30.1186167 C28.5046667,30.2226167 28.5202667,30.32705 28.5428,30.4299667 C28.5640333,30.5255167 28.57075,30.6180333 28.5376,30.7127167 C28.4461667,30.97315 28.3564667,31.2340167 28.2643833,31.4998667 C28.1577833,31.5328 28.0576833,31.5642167 27.9484833,31.59845 C27.7571667,31.9615833 27.56065,32.3260167 27.2306667,32.6237167 C27.1903667,32.5686833 27.1533167,32.53185 27.13295,32.48765 C27.0077167,32.21725 26.8879,31.9451167 26.7626667,31.6753667 C26.7178167,31.5791667 26.6664667,31.48535 26.6105667,31.395 C26.39585,31.0463833 26.3098333,30.67155 26.36595,30.2644333 C26.3746167,30.2026833 26.3676833,30.1389833 26.3676833,30.07485 C25.8032667,30.1875167 25.33765,30.8422833 25.5523667,31.3980333 C25.6869167,31.2771333 25.6507333,31.07845 25.7779167,30.9404333 C25.8892833,30.9404333 26.0147333,30.9404333 26.1601167,30.9404333 C26.2587,31.0955667 26.3657333,31.2530833 26.4593333,31.4184 C26.4937833,31.4792833 26.50895,31.5583667 26.5104667,31.6298667 C26.5165333,31.8744833 26.51285,32.1191 26.51285,32.37845 C26.3258667,32.5212333 26.1081167,32.6044333 25.8630667,32.7305333 C25.8312167,32.6750667 25.7950333,32.6126667 25.7616667,32.5546 C25.7226667,32.5801667 25.6966667,32.5875333 25.6927667,32.6009667 C25.6370833,32.7951 25.5844333,32.9901 25.5268,33.2011333 C25.4479333,33.2392667 25.3619167,33.2784833 25.2782833,33.3216 C25.1229333,33.4017667 24.99055,33.3556167 24.8677,33.2511833 C24.7420333,33.1435 24.6696667,33.0022333 24.62135,32.8471 C24.5903667,32.7472167 24.5626333,32.64625 24.5268833,32.5234 C24.3901667,32.6037833 24.3240833,32.7288 24.2216,32.8122167 C24.11435,32.89975 24.0088333,32.9892333 23.9007167,33.0754667 C23.79325,33.1614833 23.6834,33.2440333 23.55275,33.3458667 C23.6435333,33.4186667 23.7122167,33.4815 23.7887,33.5337167 C24.3916833,33.9477667 24.5936167,34.5323333 24.48615,35.2310833 C24.42635,35.6191333 24.3253833,36.0011167 24.24045,36.3852667 C24.2341667,36.4140833 24.2070833,36.4381333 24.1830333,36.4738833 C23.6563167,36.4738833 23.1257,36.4738833 22.5851167,36.4738833 C22.5469833,36.38505 22.51015,36.29925 22.4663833,36.19785 C22.29955,36.3542833 22.2336833,36.5659667 22.08505,36.725 C22.04605,36.7319333 22.0055333,36.7449333 21.96415,36.74645 C21.5119667,36.7696333 21.1193667,36.9449167 20.7633833,37.2146667 C20.4459667,37.4551667 20.1918167,37.7543833 19.9576,38.0733167 C19.89,38.1649667 19.8603167,38.2594333 19.8813333,38.3710167 C19.8910833,38.42345 19.8952,38.47675 19.9051667,38.5289667 C19.9225,38.61845 19.9004,38.6958 19.8458,38.7683833 C19.7188333,38.9386833 19.59425,39.1109333 19.4581833,39.29575 C19.3632833,39.2610833 19.2766167,39.2288 19.1832333,39.1945667 C19.1598333,39.2032333 19.12105,39.2058333 19.1026333,39.2266333 C19.0112,39.3293333 18.9180333,39.43095 18.8393833,39.5436167 C18.5897833,39.9013333 18.3479833,40.2646833 18.09925,40.6226167 C18.0431333,40.7034333 18.0013167,40.7836 17.9889667,40.8826167 C17.9551667,41.1463 17.9170333,41.4097667 17.8786833,41.6728 C17.8572333,41.8186167 17.849,41.96725 17.7829167,42.1247667 C17.3903167,42.05565 17.00465,41.9876167 16.6144333,41.9189333 C16.4291833,41.6041167 16.3756667,41.2310167 16.1561833,40.9378667 C15.9817667,40.8743833 15.8205667,40.9994 15.6515667,40.9638667 C15.5048833,40.7814333 14.9931167,39.8712167 14.8366833,39.5122 C14.8876,39.3943333 14.9445833,39.2691 14.9959333,39.1408333 C15.0223667,39.0738833 15.06635,39.00585 15.0204167,38.9289333 C14.9682,38.8414 15.0056833,38.7670833 15.0509667,38.6914667 C15.1590833,38.5077333 15.2576667,38.31815 15.3746667,38.1407 C15.4713,37.9935833 15.4873333,37.85925 15.4154,37.6939333 C15.3012167,37.4306833 15.2091333,37.1574667 15.1086,36.8883667 C15.0828167,36.8186 15.0609333,36.74775 15.0297333,36.6545833 C15.4609,36.0999167 15.9026833,35.5422167 16.3511833,34.97325 C16.4590833,35.03825 16.55225,35.09415 16.6980667,35.1821167 C16.5147667,34.7884333 16.6272167,34.4627833 16.7388,34.1419 C16.86425,33.7833167 17.07355,33.4789 17.3781833,33.24425 C17.6886667,33.00505 18.0444333,32.8720167 18.4251167,32.7966167 C18.6337667,32.7548 18.8461,32.7262 19.0491167,32.6653167 C19.2098833,32.6167833 19.3674,32.5426833 19.5108333,32.4549333 C19.7186167,32.3275333 19.81265,32.1305833 19.7784167,31.8825 C19.7509,31.6823 19.72295,31.4821 19.6887167,31.2829833 C19.6659667,31.15125 19.6765833,31.03555 19.7532833,30.9183333 C19.8809,30.7220333 19.9922667,30.5153333 20.1123,30.3147 C20.1387333,30.2707167 20.1751333,30.2330167 20.2193333,30.1769 C20.42235,30.35045 20.6151833,30.5157667 20.7919833,30.6665667 C20.80195,30.7138 20.8134333,30.7367667 20.80845,30.7549667 C20.74475,30.9894 20.7857,31.21755 20.8424667,31.447 C20.91115,31.7239 20.9724667,32.0029667 21.0376833,32.2826833 C21.2383167,32.3151833 21.3923667,32.24715 21.5271333,32.1420667 C21.5813,32.0998167 21.6172667,32.0233333 21.6395833,31.9550833 C21.6723,31.85455 21.6944,31.7486 21.7043667,31.6433 C21.7284167,31.3783167 21.7381667,31.11225 21.7628667,30.84705 C21.78735,30.5848833 21.6554,30.42455 21.4387333,30.31405 C21.3642,30.27635 21.2846833,30.2473167 21.1988833,30.2104833 C21.1988833,29.8469167 21.1988833,29.4870333 21.1988833,29.11545 C21.5618,28.9793833 21.7689333,28.68385 21.96155,28.3746667 C22.0963167,28.15735 22.2224167,27.93505 22.3630333,27.7216333 C22.4858833,27.5355167 22.61415,27.3511333 22.75845,27.1808333 C22.8836833,27.0324167 23.0156333,26.9011167 22.9876833,26.6814167 C22.9805333,26.6276833 23.0227833,26.55965 23.0589667,26.5106833 C23.4234,26.0121333 23.7910833,25.5161833 24.1589833,25.0198 C24.1711167,25.0037667 24.19235,24.9946667 24.2205167,24.9743 C24.35225,24.9799333 24.4735833,25.0514333 24.60185,25.0975833 C24.6794167,25.12445 24.74745,25.12315 24.81765,25.0878333 C24.7712833,25.3084 24.8726833,25.4953833 24.9363833,25.6927667 C25.0393,25.6927667 25.1212,25.6927667 25.21935,25.6927667 C25.2436167,25.6117333 25.2663667,25.53655 25.2845667,25.4758833 C25.1324667,25.3723167 24.9998667,25.2863 24.8729,25.1929167 C24.8445167,25.1714667 24.8356333,25.1235833 24.81765,25.0878333 L24.81765,25.0878333 Z" id="Fill-11" fill="#DD2C27"></path>
                        <path d="M66.6432,27.2438833 C66.6505667,27.3257833 66.6562,27.39035 66.6648667,27.4833 C66.7563,27.4239333 66.8197833,27.3829833 66.8928,27.33575 C66.80635,27.3039 66.7396167,27.2794167 66.6432,27.2438833 Z M65.0465833,2.25203333 C65.1939167,2.16493333 65.3211,2.14998333 65.4398333,2.03645 C65.2916333,2.01001667 65.1828667,2.0072 65.0615333,2.0449 C65.0580667,2.09776667 65.0543833,2.1476 65.0465833,2.25203333 Z M63.5548333,26.0907833 C63.6215667,25.8591667 63.6074833,25.8253667 63.4447667,25.78095 C63.38345,25.7642667 63.31975,25.7547333 63.2593,25.7345833 C62.9629,25.6329667 62.7434167,25.44425 62.6090833,25.1584667 C62.5079,24.9444 62.4429,24.7190667 62.426,24.4844167 C62.4023833,24.16635 62.4008667,23.8463333 62.38505,23.5278333 C62.3789833,23.40195 62.4218833,23.3003333 62.5037833,23.2089 C62.56055,23.14585 62.6142833,23.0793333 62.66325,23.0102167 C62.7458,22.8934333 62.8357167,22.7968 62.9971333,22.8080667 C63.02075,22.8095833 63.0469667,22.7734 63.08705,22.74285 C62.9512,22.3779833 62.84525,21.99795 62.4738833,21.7656833 C62.4738833,21.45455 62.4751833,21.1462333 62.47345,20.8381333 C62.4728,20.7454 62.51245,20.6682667 62.5742,20.61085 C62.8047333,20.3941833 62.8628,20.1372167 62.8073333,19.8312833 C62.7791667,19.6768 62.80235,19.513 62.80235,19.3392333 C62.6782,19.20035 62.5516667,19.0590833 62.4288167,18.9217167 C62.4288167,18.8699333 62.4225333,18.8261667 62.4301167,18.7854333 C62.5196,18.2832 62.6110333,17.7814 62.70095,17.2822 C62.8994167,17.1513333 63.1427333,17.1751667 63.3542,17.0508 C63.34055,16.978 63.3308,16.9067167 63.3128167,16.8376 C63.2972167,16.7765 63.27295,16.7177833 63.2497667,16.6508333 C63.1635333,16.63805 63.0807667,16.62635 63.0053667,16.6155167 C62.98305,16.5953667 62.9637667,16.5836667 62.9522833,16.56655 C62.6238167,16.0768833 62.6238167,16.0768833 62.6238167,15.4754167 C62.6238167,15.2206167 62.6238167,14.9658167 62.6238167,14.7008333 C62.7406,14.6497 62.8443833,14.6046333 62.9605167,14.5539333 C62.9477333,14.4846 62.9412333,14.4222 62.9236833,14.3634833 C62.76985,13.8354667 62.7265167,13.2981333 62.7798167,12.7514833 C62.8365833,12.1690833 62.8812167,11.5851667 62.9481667,11.00385 C63.0036333,10.5224167 62.95055,10.0474833 62.9054833,9.57081667 C62.89725,9.48696667 62.8885833,9.4029 62.8788333,9.30605 C62.9429667,9.26553333 63.0021167,9.22306667 63.0653833,9.18883333 C63.2616833,9.08245 63.4573333,8.97455 63.6584,8.87683333 C63.8161333,8.79991667 63.8731167,8.68053333 63.8456,8.51348333 C63.83715,8.46235 63.8248,8.41251667 63.8118,8.34925 C63.6906833,8.32845 63.5775833,8.30938333 63.4382667,8.28598333 C63.3386,8.11655 63.2257167,7.93715 63.1269167,7.74995 C63.0942,7.6882 63.0855333,7.60673333 63.0879167,7.5348 C63.10785,7.00288333 63.1394833,6.4714 63.15465,5.93948333 C63.1602833,5.7356 63.2192167,5.56703333 63.3661167,5.42706667 C63.3962333,5.39846667 63.4161667,5.35925 63.4465,5.317 C63.4192,5.1389 63.3368667,4.97705 63.2666667,4.81281667 C63.2016667,4.66115 63.18195,4.50753333 63.1895333,4.34568333 C63.2107667,3.90715 63.3139,3.48313333 63.4105333,3.0576 C63.45495,2.86021667 63.5015333,2.66348333 63.5453,2.46588333 C63.5994667,2.22126667 63.6042333,1.9786 63.492,1.74741667 C63.4267833,1.61416667 63.4291667,1.48113333 63.4625333,1.34311667 C63.5128,1.13598333 63.5695667,0.931233333 63.6859167,0.74815 C63.9314,0.359666667 64.2806667,0.154916667 64.7434667,0.138883333 C65.5202167,0.112016667 66.2131167,0.331066667 66.8314833,0.850416667 C66.8845667,1.90536667 66.8867333,2.97895 66.9084,4.05231667 C66.9302833,5.12698333 66.9562833,6.201 66.9801167,7.27371667 C67.13395,7.4087 67.3092333,7.49731667 67.4892833,7.54845 C67.7765833,7.6297 67.98805,7.82036667 68.2396,7.98308333 C68.2396,8.23766667 68.2439333,8.49268333 68.2365667,8.74705 C68.2352667,8.80555 68.2055833,8.87141667 68.1696167,8.91951667 C68.0558667,9.0727 67.9325833,9.21873333 67.8214333,9.35718333 C67.5883,9.36455 67.587,9.36325 67.4760667,9.49433333 C67.4145333,9.56735 67.3577667,9.64491667 67.301,9.72183333 C67.2765167,9.75498333 67.2578833,9.79246667 67.2386,9.82583333 C67.3059833,9.92853333 67.41605,9.9515 67.5053167,10.0069667 C67.6673833,10.1077167 67.8374667,10.20045 67.98285,10.3222167 C68.2738333,10.5668333 68.4268,10.8905333 68.44305,11.271 C68.4558333,11.5689167 68.4538833,11.8674833 68.3730667,12.1586833 C68.3618,12.19985 68.35335,12.2416667 68.341,12.2824 C68.2242167,12.6555 67.9731,12.8702167 67.5844,12.9204833 C67.43685,12.93955 67.28865,12.95255 67.1463,12.9677167 C67.0245333,13.1846 67.0230167,13.1861167 67.16255,13.3232667 C67.2760833,13.4355 67.3937333,13.5438333 67.5272,13.6708 C67.51875,13.8285333 67.5116,13.9968833 67.5007667,14.1658833 C67.4910167,14.33575 67.4773667,14.5056167 67.4645833,14.6930333 C67.1400167,14.9549833 67.0553,15.33675 67.01825,15.7347667 C66.9957167,15.9783 66.9879167,16.2235667 66.9803333,16.4681833 C66.9757833,16.6257 66.9588833,16.7866833 67.0886667,16.9173333 C67.12095,16.9498333 67.1244167,17.0161333 67.1315667,17.0685667 C67.1582167,17.2583667 67.1785833,17.4488167 67.2065333,17.6384 C67.2225667,17.7491167 67.2011167,17.8485667 67.1441333,17.9434667 C67.1114167,17.9982833 67.0899667,18.0609 67.0524833,18.1113833 C66.7684333,18.4951 66.8377667,18.9314667 66.8418833,19.40575 C66.90385,19.3541833 66.9357,19.3327333 66.9606167,19.3052167 C67.02475,19.23415 67.0854167,19.1596167 67.14825,19.0876833 C67.3449833,18.8645167 67.5809333,18.7477333 67.91005,18.8283333 C67.92565,18.8848833 67.9525167,18.95205 67.9635667,19.0218167 C68.0597667,19.6445167 68.0602,19.64495 67.8563167,20.2654833 C67.8205667,20.3736 67.80475,20.4919 67.7245833,20.5863667 C67.5311,20.5761833 67.3766167,20.3922333 67.1642833,20.4979667 C67.07155,20.3920167 66.9812,20.2886667 66.8977833,20.1933333 C66.79075,20.2256167 66.81285,20.2997167 66.8111167,20.3564833 C66.7948667,20.9525333 66.7812167,21.5490167 66.7669167,22.1446333 C66.74655,22.99635 66.7264,23.8476333 66.7064667,24.69935 C66.7038667,24.8053 66.70625,24.91125 66.70625,25.0102667 C66.7812167,25.07375 66.8269333,24.9875167 66.8832667,24.99575 C66.9354833,25.0031167 66.9859667,25.025 67.0384,25.02955 C67.1549667,25.0395167 67.2721833,25.0518667 67.38875,25.0462333 C67.6600167,25.0338833 67.8257667,25.17385 67.94125,25.40135 C68.04005,25.5967833 68.0628,25.80825 68.0784,26.0210167 C68.08555,26.1250167 68.0794833,26.2309667 68.0794833,26.3423333 C67.92435,26.4407 67.7594667,26.5098167 67.6444167,26.6270333 C67.5287167,26.7446833 67.4658833,26.9141167 67.37185,27.0547333 C67.3200667,27.1320833 67.2507333,27.1983833 67.1816167,27.2792 C67.4916667,27.4044333 67.7869833,27.5236 68.0911833,27.6462333 C68.1356,28.0139167 68.0225,28.38225 68.06085,28.7505833 C68.2302833,28.87235 68.3971167,28.9863167 68.5565833,29.1096 C68.61205,29.1529333 68.6742333,29.2118667 68.6917833,29.27535 C68.7349,29.4291833 68.8428,29.5032833 68.97865,29.5479167 C69.0687833,29.5771667 69.1636833,29.5992667 69.2577167,29.6051167 C69.4165333,29.614 69.5762167,29.6072833 69.7400167,29.6072833 C69.9020833,29.3977667 69.9508333,29.1379833 70.0983833,28.9096167 C70.2660833,28.86975 70.4448333,28.89315 70.6383167,28.8955333 C70.8478333,29.1273667 71.0610333,29.3628833 71.2701167,29.5947167 C71.3864667,29.5947167 71.4906833,29.5947167 71.6070333,29.5947167 C71.7069167,29.3072 71.8042,29.0287833 71.9095,28.72805 C71.9957333,28.7835167 72.0676667,28.82425 72.1341833,28.8734333 C72.40025,29.068 72.6622,29.2692833 72.9315167,29.4597333 C73.01645,29.5193167 73.1159,29.57305 73.2157833,29.5940667 C73.5329833,29.6599333 73.7139,29.5732667 73.8868,29.2931167 C73.94725,29.1943167 74.0007667,29.0903167 74.0562333,28.9904333 C74.3342167,28.9341 74.5716833,29.0103667 74.7939833,29.1509833 C74.9016667,29.2188 75.0030667,29.29745 75.1088,29.3687333 C75.2052167,29.4337333 75.3040167,29.49505 75.4065,29.5607 C75.6628167,29.42485 75.8266167,29.1893333 76.0729667,29.0346333 C76.1132667,29.0823 76.1602833,29.1241167 76.18975,29.1761167 C76.2623333,29.3056833 76.3706667,29.3873667 76.5110667,29.419 C76.7598,29.4744667 77.0102667,29.5217 77.2600833,29.5706667 C77.3125167,29.5806333 77.3658167,29.5864833 77.4189,29.5910333 C78.2589167,29.6605833 78.7095833,30.1805833 78.8502,30.9395667 C78.90285,31.2247 78.90285,31.51135 78.89895,31.7988667 C78.8922333,32.2881 78.9581,32.1303667 78.6341833,32.5049833 C78.4604167,32.7062667 78.2805833,32.9025667 78.09295,33.1131667 C77.98115,33.11555 77.8652333,33.1201 77.7493167,33.1201 C76.8869833,33.12075 76.024,33.1079667 75.1618833,33.1244333 C74.4811167,33.1372167 73.8012167,33.1835833 73.1208833,33.2206333 C72.8127833,33.2375333 72.5053333,33.267 72.1976667,33.29365 C72.1474,33.29755 72.0982167,33.3135833 72.0353833,33.3263667 C72.0620333,33.40025 72.0815333,33.4607 72.1047167,33.5189833 C72.2613667,33.9141833 72.2808667,34.32715 72.2654833,34.74445 C72.26375,34.79515 72.2475,34.85105 72.2206333,34.8930833 C72.0189167,35.2044333 71.7511167,35.4161167 71.3626333,35.4219667 C71.1817167,35.425 71.0010167,35.4091833 70.8205333,35.40485 C70.6992,35.4016 70.6238,35.3433167 70.5787333,35.2321667 C70.5507833,35.1634833 70.51525,35.0971833 70.47625,35.0337 C70.3666167,34.85625 70.3235,34.671 70.3362833,34.4582333 C70.3549167,34.1512167 70.3408333,33.8420333 70.3382333,33.5335 C70.3380167,33.51465 70.3219833,33.4962333 70.3135333,33.4771667 C70.30465,33.4728333 70.2957667,33.4635167 70.2871,33.4641667 C70.04335,33.4823667 69.7996,33.4997 69.5562833,33.5202833 C68.5503,33.6045667 67.5443167,33.69015 66.5192667,33.7761667 C66.5266333,33.8524333 66.5296667,33.9235 66.5422333,33.99305 C66.6013833,34.3299667 66.6187167,34.66905 66.6185,35.0105167 C66.6182833,35.11625 66.5805833,35.1899167 66.5012833,35.2570833 C66.2757333,35.4486167 66.01855,35.5682167 65.7267,35.6085167 C65.32435,35.6639833 64.9198333,35.6501167 64.51575,35.63365 C64.4964667,35.6327833 64.4782667,35.6161 64.4438167,35.5992 C64.3426333,35.3171 64.3157667,35.0126833 64.3099167,34.7039333 C64.3040667,34.3984333 64.3513,34.0935833 64.34805,33.77725 C63.9790667,33.7753 63.6672833,33.9759333 63.3022,33.9239333 C63.2601667,33.86435 63.2088167,33.7982667 63.1661333,33.7272 C63.0398167,33.51725 62.91935,33.3038333 62.7917333,33.0949667 C62.7436333,33.0161 62.7336667,32.9381 62.75815,32.85165 C62.8324667,32.5858 62.90505,32.3193 62.9789333,32.0506333 C63.06235,32.0229 63.1388333,31.99755 63.2088167,31.9743667 C63.2237667,31.8250833 63.1420833,31.7358167 63.0796833,31.6394 C62.8840333,31.3356333 62.6929333,31.02775 62.48775,30.7294 C62.3651167,30.5510833 62.3196167,30.3823 62.39155,30.1649833 C62.4823333,29.8906833 62.4860167,29.6005667 62.4563333,29.3115333 C62.4060667,28.82425 62.3623,28.3365333 62.3191833,27.8486 C62.2916667,27.5400667 62.2936167,27.2319667 62.3549333,26.92625 C62.3909,26.7472833 62.4450667,26.5761167 62.54105,26.4199 C62.7393,26.0975 63.0088333,25.9833167 63.3802,26.0615333 C63.4311167,26.0717167 63.4833333,26.0784333 63.5548333,26.0907833 L63.5548333,26.0907833 Z" id="Fill-12" fill="#DD2C27"></path>
                        <path d="M25.26875,35.3909833 C25.0401667,35.29695 24.8609833,35.1481 24.6514667,35.0042333 C24.6497333,34.82375 24.6412833,34.63395 24.6490833,34.4450167 C24.6519,34.3754667 24.6857,34.3031 24.7190667,34.2394 C24.76825,34.1458 24.8287,34.0574 24.8856833,33.9681333 C25.0206667,33.7586167 25.0213167,33.7588333 25.2993,33.8151667 C25.31035,33.8327167 25.3300667,33.8498333 25.33115,33.86825 C25.3487,34.1676833 25.4381833,34.4513 25.5229,34.7349167 C25.5640667,34.8707667 25.54695,34.9814833 25.46635,35.0932833 C25.3978833,35.1871 25.3374333,35.2861167 25.26875,35.3909833" id="Fill-13" fill="#C8312B"></path>
                        <path d="M28.4871167,30.1175333 C28.4760667,30.1056167 28.4645833,30.0939167 28.4535333,30.0817833 C28.4648,30.08005 28.4765,30.07745 28.48755,30.07485 C28.4853833,30.0908833 28.4827833,30.1067 28.4799667,30.1225167 C28.47975,30.1227333 28.4871167,30.1175333 28.4871167,30.1175333" id="Fill-14" fill="#0A0B09"></path>
                        <path d="M45.1598333,28.9206667 C45.2798667,28.9206667 45.3721667,28.9206667 45.4545,28.9206667 C45.53835,29.2647333 45.6222,29.59125 45.6947833,29.9203667 C45.7095167,29.9873167 45.7036667,30.0729 45.6733333,30.1324833 C45.6066,30.2629167 45.5309833,30.3911833 45.4267667,30.5079667 C45.30045,30.4824 45.2168167,30.3966 45.1201833,30.33745 C45.0211667,30.277 44.9269167,30.2078833 44.8294167,30.1418 C44.7789333,29.94875 44.8071,29.7574333 44.8075333,29.5685 C44.80775,29.5084833 44.8344,29.4437 44.8656,29.3908333 C44.9566,29.2352667 45.0558333,29.0851167 45.1598333,28.9206667" id="Fill-15" fill="#C8312B"></path>
                        <path d="M48.3634667,24.79165 C48.3207833,24.6009833 48.3116833,24.5962167 48.1569833,24.6703167 C48.1665167,24.6880833 48.17215,24.7143 48.1871,24.72145 C48.2408333,24.7472333 48.2976,24.7663 48.3634667,24.79165 Z M45.44215,20.5826833 C45.35375,20.5322 45.2816,20.4897333 45.2075,20.4494333 C45.1407667,20.4141167 45.0896333,20.3376333 44.9841167,20.3502 C44.9925667,20.5283 45.0408833,20.6734667 45.10675,20.8093167 C45.3838667,20.8359667 45.3838667,20.8359667 45.44215,20.5826833 Z M53.4811333,12.1996333 C53.6897833,12.1537 53.8295333,12.0585833 53.9614833,11.9498167 C54.14175,11.80075 54.2000333,11.60575 54.1699167,11.37955 C54.1582167,11.2909333 54.1103333,11.2333 54.0267,11.2395833 C53.7870667,11.2569167 53.54245,11.2389333 53.2984833,11.31845 C53.2779,11.6298 53.3719333,11.9058333 53.4811333,12.1996333 Z M56.8602667,5.16165 C57.1152833,5.34755 57.3635833,5.52825 57.6207667,5.71545 C57.7137167,5.6849 57.80255,5.65565 57.8985333,5.62423333 C57.8835833,5.5835 57.8814167,5.54753333 57.86235,5.5289 C57.77135,5.44028333 57.6758,5.35621667 57.5692,5.25893333 C57.5692,4.97705 57.5707167,4.69018333 57.5681167,4.40375 C57.5674667,4.29498333 57.63875,4.2302 57.7031,4.16021667 C58.10805,3.72255 58.5132167,3.28488333 58.9183833,2.84743333 C58.9979,2.76206667 59.0780667,2.67691667 59.1697167,2.57963333 C59.2713333,2.62383333 59.3697,2.65936667 59.46135,2.70768333 C59.5833333,2.77268333 59.7105167,2.83421667 59.8177667,2.92001667 C60.0220833,3.08273333 60.2123167,3.0511 60.3964833,2.9016 C60.5035167,2.81558333 60.6127167,2.72415 60.6894167,2.613 C60.7596167,2.51095 60.8443333,2.44205 60.9474667,2.38506667 C61.0774667,2.31313333 61.20595,2.2386 61.3539333,2.15453333 C61.4046333,2.19396667 61.4629167,2.23621667 61.5170833,2.2828 C61.6945333,2.43598333 61.8706833,2.59025 62.0466167,2.74538333 C62.1421667,2.82966667 62.2375,2.9146 62.33045,3.00256667 C62.7759167,3.42463333 62.9730833,3.94485 62.9366833,4.55455 C62.9184833,4.86503333 62.8513167,5.1662 62.725,5.45133333 C62.5850333,5.76853333 62.3789833,6.03221667 62.1027333,6.24801667 C61.8685167,6.4311 61.6499,6.63476667 61.4271667,6.83171667 C61.2945667,6.94893333 61.2206833,7.09085 61.2081167,7.27545 C61.1788667,7.6999 61.1286,8.12305 61.09285,8.54728333 C61.05905,8.9505 61.01355,9.3522 60.8976333,9.7422 C60.84325,9.92658333 60.7726167,10.1040333 60.6536667,10.25895 C60.4521667,10.52155 60.2456833,10.59435 59.9271833,10.5005333 C59.6708667,10.4251333 59.4312333,10.3111667 59.2132667,10.1623167 C59.1673333,10.0165 59.1231333,9.87805 59.0698333,9.70796667 C58.99855,9.7656 58.94655,9.79831667 58.90625,9.84186667 C58.4454,10.34345 57.9808667,10.8422167 57.52825,11.3520333 C57.2660833,11.6471333 57.04725,11.9758167 56.8667667,12.3281167 C56.77425,12.50795 56.6834667,12.6888667 56.6589833,12.8942667 C56.6542167,12.9360833 56.6453333,12.9805 56.6254,13.0164667 C56.5068833,13.2290167 56.3708167,13.4298667 56.2364833,13.6391667 C56.1420167,13.6136 56.06965,13.5997333 56.0016167,13.5754667 C55.8597,13.5239 55.7509333,13.57135 55.6631833,13.6816333 C55.6036,13.7566 55.5481333,13.8348167 55.4941833,13.9139 C55.3379667,14.1422667 55.17785,14.3680333 55.0313833,14.6029 C54.9709333,14.6995333 54.9302,14.8126333 54.89965,14.92335 C54.7900167,15.3233167 54.6886167,15.7256667 54.5828833,16.1269333 C54.5562333,16.22985 54.5267667,16.3314667 54.4983833,16.4363333 C54.5027167,16.4532333 54.5022833,16.4801 54.5155,16.4918 C54.7869833,16.7336 54.9013833,17.0477667 54.9245667,17.3996333 C54.9468833,17.7426167 54.9076667,18.0799667 54.7759333,18.4017167 C54.6,18.8320167 54.2823667,19.0603833 53.8124167,19.0463 C53.5045333,19.0374167 53.1973,19.0101167 52.8868167,18.9906167 C52.7106667,18.7052667 52.6718833,18.38395 52.54795,18.0879833 C52.5863,18.3609833 52.4463333,18.5605333 52.299,18.759 C52.2561,18.8162 52.2257667,18.8829333 52.1778833,18.9661333 C52.2415833,18.9787 52.2792833,18.98715 52.3176333,18.9925667 C52.3588,18.9986333 52.4004,19.0016667 52.4645333,19.0086 C52.4825167,19.13405 52.5048333,19.2582 52.51675,19.3834333 C52.5616,19.8390833 52.6127333,20.2943 52.6406833,20.7510333 C52.65325,20.9521 52.72215,21.11785 52.8226833,21.2844667 C53.5517667,22.4861 54.2763,23.6901167 55.0019167,24.8928333 C56.7393667,27.7734167 58.47595,30.6544333 60.2131833,33.5350167 C60.3828333,33.8158167 60.3837,33.81625 60.3169667,34.1278167 C60.27255,34.3353833 60.22445,34.5423 60.1757,34.7611333 C60.1094,34.7895167 60.04375,34.8213667 59.9752833,34.8456333 C59.6375,34.96415 59.3564833,35.1671667 59.0949667,35.4091833 C58.9333333,35.5580333 58.8913,35.7172833 58.9437333,35.92225 C58.9755833,36.04575 58.981,36.1753167 59.0074333,36.2996833 C59.0262833,36.3878667 59.0163167,36.4676 58.9799167,36.54755 C58.89195,36.7406 58.8044167,36.9345167 58.71905,37.1232333 C58.4237333,37.2426167 58.1466167,37.2057833 57.8692833,37.1004833 C57.6077667,37.00125 57.37485,36.8537 57.15255,36.6875167 C56.7668833,36.3991333 56.42585,36.0633 56.09695,35.71425 C55.3576833,34.9312167 54.6899167,34.0881667 54.0475,33.2249667 C52.6989667,31.4136333 51.4401333,29.5409833 50.2296167,27.6356167 C49.7731,26.9160667 49.3157167,26.1976 48.8583333,25.4795667 C48.802,25.3918167 48.74025,25.3068833 48.6642,25.1961667 C48.6158833,25.3231333 48.6657167,25.4082833 48.6932333,25.4893167 C48.74415,25.63925 48.72985,25.77835 48.67525,25.9235167 C48.5890167,26.1525333 48.51275,26.3848 48.42955,26.6244333 C48.3782,26.6393833 48.32945,26.6627833 48.2789667,26.6677667 C48.1589333,26.67925 48.0987,26.7503167 48.0397667,26.8502 C47.9060833,27.079 47.76005,27.3013 47.6114167,27.5214333 C47.55335,27.6063667 47.4840167,27.6889167 47.3724333,27.73615 C47.2118833,27.4648833 47.0946667,27.1801833 46.96445,26.9013333 C46.9154833,26.7956 46.8788667,26.6816333 46.8156,26.5845667 C46.57185,26.2127667 46.4767333,25.8091167 46.5285167,25.3684167 C46.5345833,25.3170667 46.5296,25.2639833 46.5296,25.19335 C46.33395,25.2163167 46.1957167,25.33375 46.05705,25.4418667 C45.903,25.5621167 45.7868667,25.7148667 45.7246833,25.9014167 C45.65665,26.1042167 45.6614167,26.3107 45.6971667,26.5767667 C45.8345333,26.3921667 45.82955,26.2084333 45.9339833,26.0606667 C46.0481667,26.0208 46.1736167,26.0353167 46.3185667,26.0509167 C46.4225667,26.2149333 46.5332833,26.3826333 46.6362,26.5555333 C46.6624167,26.5988667 46.6754167,26.6565 46.6760667,26.7076333 C46.6786667,26.9724 46.6955667,27.2386833 46.6626333,27.5218667 C46.4663333,27.6362667 46.26505,27.74655 46.0473,27.83495 C45.9966,27.7727667 45.9571667,27.7253167 45.9134,27.6718 C45.8926,27.6936833 45.8609667,27.7118833 45.8533833,27.7368 C45.81265,27.8798 45.7812333,28.0254 45.7396333,28.1681833 C45.65535,28.4585167 45.2764,28.5737833 45.0434833,28.3818167 C44.93385,28.2916833 44.8591,28.17425 44.8133833,28.0420833 C44.7715667,27.9216167 44.7416667,27.7976833 44.7007167,27.6551167 C44.50745,27.75695 44.39955,27.9478333 44.2353167,28.0726333 C44.0674,28.20025 43.8776,28.3038167 43.7311333,28.4840833 C43.8299333,28.5597 43.9194167,28.6325 44.0130167,28.69945 C44.47625,29.0287833 44.6818667,29.4866 44.6727667,30.04495 C44.6697333,30.2245667 44.64915,30.40635 44.6144833,30.5822833 C44.5505667,30.9053333 44.4706167,31.226 44.39435,31.5601 C44.3473333,31.5722333 44.2975,31.5952 44.2476667,31.5954167 C43.7792333,31.5982333 43.3108,31.5969333 42.8423667,31.5956333 C42.8113833,31.5954167 42.7806167,31.5830667 42.7299167,31.5722333 C42.7063,31.5042 42.67965,31.4290167 42.6545167,31.3564333 C42.6200667,31.3614167 42.5910333,31.3575167 42.58345,31.3685667 C42.48075,31.5169833 42.3810833,31.66735 42.2716667,31.8307167 C42.1884667,31.8461 42.0957333,31.86885 42.0021333,31.8794667 C41.6444167,31.9210667 41.3248333,32.0584333 41.0316833,32.2612333 C40.6681167,32.51365 40.3808167,32.83995 40.1234167,33.1959333 C40.0636167,33.2784833 40.0384833,33.3645 40.0525667,33.46525 C40.06275,33.5387 40.0729333,33.6138833 40.06795,33.6879833 C40.0644833,33.7493 40.0556,33.8195 40.0222333,33.8671667 C39.8972167,34.0506833 39.7685167,34.23225 39.6383,34.3912833 C39.5925833,34.3938833 39.5696167,34.4014667 39.55185,34.3951833 C39.28795,34.2983333 39.25805,34.3022333 39.10205,34.5186833 C39.0093167,34.64825 38.9311,34.78865 38.8409667,34.9201667 C38.6609167,35.18385 38.4817333,35.4486167 38.29345,35.7058 C38.2087333,35.8210667 38.1578167,35.9385 38.1422167,36.08215 C38.1090667,36.3887333 38.0614,36.6940167 38.0163333,36.9995167 C38.0057167,37.0712333 37.9831833,37.1414333 37.9621667,37.2296167 C37.5507167,37.1984167 37.1620167,37.102 36.7709333,37.0365667 C36.6043167,36.70875 36.5287,36.3586167 36.3315333,36.0628667 C36.1551667,36.0134667 35.9909333,36.0947167 35.8095833,36.0919 C35.7807667,36.0537667 35.7448,36.0154167 35.7196667,35.971 C35.50755,35.5898833 35.3012833,35.2048667 35.0835333,34.827 C35.0120333,34.7026333 35.0003333,34.5932167 35.0696667,34.4682 C35.1158167,34.3845667 35.1507,34.29465 35.1840667,34.20495 C35.1977167,34.16725 35.2128833,34.1115667 35.19555,34.0838333 C35.1156,33.9577333 35.1858,33.8632667 35.24495,33.7623 C35.38405,33.5235333 35.52185,33.2843333 35.6616,33.0431833 C35.5056,32.6258833 35.3532833,32.21855 35.2044333,31.8211833 C35.3181833,31.6034333 36.1891833,30.4769833 36.5287,30.1064833 C36.5765833,30.1355167 36.6296667,30.1641167 36.6790667,30.1974833 C36.7215333,30.2258667 36.7605333,30.25945 36.8201167,30.3056 C36.8227167,30.2481833 36.83485,30.2156833 36.8242333,30.19315 C36.74255,30.0206833 36.7356167,29.8477833 36.7934667,29.6664333 C36.8320333,29.5451 36.84915,29.4161833 36.8914,29.2965833 C37.09745,28.7107167 37.48615,28.29125 38.0687667,28.0732833 C38.3058,27.9846667 38.5610333,27.9424167 38.8076,27.8785 C39.0132167,27.8254167 39.2236,27.78555 39.42185,27.7131833 C39.5481667,27.6668167 39.6645167,27.58145 39.77155,27.4963 C39.8946167,27.3998833 39.9594,27.2638167 39.9422833,27.1032667 C39.9149833,26.8493333 39.8863833,26.5958333 39.8480333,26.3436333 C39.8343833,26.2535 39.8421833,26.1765833 39.8881167,26.0996667 C40.0391333,25.8435667 40.1890667,25.58725 40.3498333,25.3138167 C40.4057333,25.3432833 40.4544833,25.3595333 40.4913167,25.3900833 C40.6471,25.5187833 40.7994167,25.6516 40.9504333,25.7811667 C40.9573667,25.81865 40.9725333,25.8518 40.9673333,25.8799667 C40.91425,26.1492833 40.9686333,26.4086333 41.0323333,26.6686333 C41.0921333,26.9143333 41.1471667,27.1622 41.2056667,27.4154833 C41.3941667,27.43455 41.5367333,27.36825 41.6719333,27.2844 C41.7482,27.2371667 41.7906667,27.16155 41.8049667,27.07445 C41.8413667,26.8541 41.88275,26.6346167 41.90615,26.41275 C41.9241333,26.2444 41.9111333,26.0719333 41.9234833,25.9027167 C41.9362667,25.7209333 41.8543667,25.5926667 41.7109333,25.5025333 C41.6047667,25.43645 41.4869,25.38965 41.3599333,25.3270333 C41.3324167,24.9753833 41.3527833,24.6152833 41.34715,24.2441333 C41.7380167,24.0989667 41.9531667,23.7830667 42.1540167,23.45395 C42.2536833,23.2908 42.3496667,23.1248333 42.45215,22.96255 C42.6283,22.6837 42.8072667,22.4052833 43.0432167,22.17085 C43.108,22.10585 43.147,22.035 43.13725,21.9444333 C43.1192667,21.7823667 43.19705,21.66125 43.2887,21.5386167 C43.6080667,21.1124333 43.9209333,20.6819167 44.2377,20.2542167 C44.28125,20.1952833 44.3317333,20.1417667 44.3731167,20.09345 C44.5679,20.1053667 44.7158833,20.23645 44.9267,20.2362333 C44.8326667,20.1019 44.759,19.9859833 44.6742833,19.8787333 C44.5936833,19.7773333 44.57765,19.6726833 44.6147,19.5507 C44.6732,19.3572167 44.7301833,19.1630833 44.7802333,18.9672167 C44.9108833,18.4550167 44.941,18.6142667 44.6775333,18.1685833 C43.4746,16.1345167 42.2695,14.1015333 41.06505,12.0687667 C39.9524667,10.1911333 38.8392333,8.31436667 37.7277333,6.43651667 C37.5193,6.084 37.5405333,6.18605 37.6833167,5.82486667 C37.8438667,5.41926667 38.00745,5.01496667 38.1714667,4.61066667 C38.207,4.52313333 38.2496833,4.43776667 38.2945333,4.3394 C38.4626667,4.33853333 38.5835667,4.47698333 38.7371833,4.48716667 C38.8169167,4.42671667 38.7868,4.3472 38.7915667,4.2783 C38.7969833,4.20441667 38.7930833,4.12966667 38.7959,4.05513333 C38.7980667,3.98103333 38.8034833,3.90758333 38.8089,3.81203333 C39.1822167,3.59645 39.5542333,3.3696 39.9390333,3.16658333 C40.0857167,3.08966667 40.2607833,3.06215 40.4256667,3.02358333 C40.5327,2.9991 40.6323667,3.02813333 40.7216333,3.10353333 C40.8928,3.24675 41.0700333,3.38368333 41.2472667,3.51931667 C41.31335,3.57001667 41.3363167,3.6335 41.3384833,3.71236667 C41.3449833,3.94658333 41.3480167,4.1808 41.3629667,4.41458333 C41.3720667,4.5526 41.3454167,4.66591667 41.2269,4.74933333 C41.1933167,4.77295 41.1686167,4.80978333 41.1317833,4.849 C41.1471667,5.04963333 41.2117333,5.2364 41.3046833,5.43118333 C41.6080167,5.2806 41.8591333,5.06371667 42.1546667,4.91335 C42.2695,4.97683333 42.3154333,5.0895 42.37805,5.18418333 C43.33615,6.63065 44.29295,8.07863333 45.2495333,9.5264 C46.2771833,11.08055 47.3044,12.6347 48.3318333,14.1890667 C48.3896833,14.2766 48.4520833,14.3621833 48.5194667,14.4590333 C48.7565,14.4146167 48.9458667,14.2605667 49.19265,14.2059667 C49.2856,14.5266333 49.3755167,14.8405833 49.4691167,15.16385 C49.66325,15.1824833 49.8352833,15.1731667 50.0224833,15.0635333 C49.8775333,14.97665 49.7520833,14.9019 49.621,14.82325 C49.56575,14.5961833 49.5159167,14.3673833 49.4530833,14.1427 C49.42145,14.03155 49.4361833,13.9316667 49.48125,13.8333 C49.5568667,13.66885 49.6314,13.5039667 49.71785,13.3453667 C49.9520667,12.9150667 50.3269,12.7036 50.8083333,12.6763 C51.0098333,12.6646 51.21285,12.6663333 51.4147833,12.6700167 C51.5285333,12.6721833 51.6188833,12.64055 51.69905,12.5567 C51.8825667,12.3643 52.0719333,12.1781833 52.2803667,11.9673667 C52.2803667,11.8525333 52.2779833,11.7151667 52.2810167,11.5775833 C52.2894667,11.2138 52.3406,10.8567333 52.4591167,10.51115 C52.6582333,9.93286667 53.0174667,9.51383333 53.6234833,9.33876667 C53.6843667,9.32078333 53.7437333,9.29586667 53.8015833,9.26856667 C54.1075167,9.12578333 54.2825833,8.88853333 54.3049,8.54901667 C54.31465,8.40103333 54.3066333,8.25153333 54.3066333,8.08881667 C54.4832167,7.93325 54.6572,7.78028333 54.8179667,7.63836667 C54.8639,7.644 54.8881667,7.63988333 54.9039833,7.64963333 C55.0498,7.7363 55.1943167,7.82535 55.3392667,7.91353333 C55.3843333,8.06585 55.432,8.2173 55.4740333,8.3707 C55.5208333,8.54533333 55.5611333,8.72148333 55.60815,8.89633333 C55.6274333,8.96696667 55.6579833,9.0337 55.6833333,9.10303333 C55.8295833,9.13011667 55.9647833,9.14116667 56.1084333,9.09306667 C56.1201333,9.03998333 56.1381167,8.9895 56.1407167,8.93793333 C56.1615167,8.57653333 56.1784167,8.21535 56.1966167,7.85373333 C56.2050667,7.68776667 56.16195,7.53696667 56.0577333,7.4074 C55.9160333,7.23168333 55.8688,7.03646667 55.8984833,6.81178333 C55.9218833,6.63281667 55.8783333,6.43456667 55.9413833,6.2751 C56.0081167,6.10501667 56.1623833,5.9683 56.2826333,5.8201 C56.4236833,5.64676667 56.5679833,5.47538333 56.7127167,5.3053 C56.7523667,5.25871667 56.8009,5.21906667 56.8602667,5.16165 L56.8602667,5.16165 Z" id="Fill-16" fill="#DD2C27"></path>
                    </g>
                </g>
            </g>
        </g>
    </g>
</svg>